<?xml version="1.0" encoding="UTF-8" standalone="no"?>
<!-- Created with Inkscape (http://www.inkscape.org/) -->

<svg
   xmlns:dc="http://purl.org/dc/elements/1.1/"
   xmlns:cc="http://creativecommons.org/ns#"
   xmlns:rdf="http://www.w3.org/1999/02/22-rdf-syntax-ns#"
   xmlns:svg="http://www.w3.org/2000/svg"
   xmlns="http://www.w3.org/2000/svg"
   xmlns:sodipodi="http://sodipodi.sourceforge.net/DTD/sodipodi-0.dtd"
   xmlns:inkscape="http://www.inkscape.org/namespaces/inkscape"
   width="43.930153mm"
   height="25.933048mm"
   viewBox="0 0 43.930153 25.933048"
   version="1.1"
   id="svg8"
   sodipodi:docname="logo.inkscape.trytoremovefont.svg"
   inkscape:version="0.92.5 (2060ec1f9f, 2020-04-08)">
  <defs
     id="defs2" />
  <sodipodi:namedview
     id="base"
     pagecolor="#ffffff"
     bordercolor="#666666"
     borderopacity="1.0"
     inkscape:pageopacity="0.0"
     inkscape:pageshadow="2"
     inkscape:zoom="16.23"
     inkscape:cx="130.9628"
     inkscape:cy="44.854768"
     inkscape:document-units="mm"
     inkscape:current-layer="layer1"
     showgrid="false"
     inkscape:window-width="1920"
     inkscape:window-height="1112"
     inkscape:window-x="0"
     inkscape:window-y="27"
     inkscape:window-maximized="1"
     fit-margin-top="0"
     fit-margin-left="0"
     fit-margin-right="0"
     fit-margin-bottom="0"
     showguides="true"
     inkscape:guide-bbox="true">
    <sodipodi:guide
       position="30.435196,16.373028"
       orientation="0,1"
       id="guide5597"
       inkscape:locked="false" />
  </sodipodi:namedview>
  <metadata
     id="metadata5">
    <rdf:RDF>
      <cc:Work
         rdf:about="">
        <dc:format>image/svg+xml</dc:format>
        <dc:type
           rdf:resource="http://purl.org/dc/dcmitype/StillImage" />
        <dc:title></dc:title>
      </cc:Work>
    </rdf:RDF>
  </metadata>
  <g
     inkscape:label="Layer 1"
     inkscape:groupmode="layer"
     id="layer1"
     transform="translate(-4.154302,-154.41647)">
    <g
       aria-label="C"
       style="font-style:normal;font-weight:normal;font-size:10.58333302px;line-height:1.25;font-family:sans-serif;letter-spacing:0px;word-spacing:0px;fill:#000000;fill-opacity:1;stroke:none;stroke-width:0.26458332"
       id="text3753">
      <path
         d="m 4.154302,167.383 c 0,7.28257 5.6839557,12.96652 13.144148,12.96652 6.749697,0 9.946922,-3.90772 9.946922,-3.90772 l -4.262967,-6.7497 c 0,0 -2.131483,1.95386 -4.618214,1.95386 -2.48673,0 -4.262967,-1.77623 -4.262967,-4.26296 0,-2.48673 1.776237,-4.26297 4.262967,-4.26297 2.486731,0 4.618214,1.95386 4.618214,1.95386 l 4.262967,-6.7497 c 0,0 -3.197225,-3.90772 -9.946922,-3.90772 -7.4601923,0 -13.144148,5.68396 -13.144148,12.96653 z"
         style="font-style:normal;font-variant:normal;font-weight:normal;font-stretch:normal;font-size:35.52472305px;font-family:'Peace Sans';-inkscape-font-specification:'Peace Sans';stroke-width:0.26458332"
         id="path5585"
         inkscape:connector-curvature="0"
         sodipodi:nodetypes="ssccsssccss" />
    </g>
    <g
       aria-label="o"
       style="font-style:normal;font-weight:normal;font-size:10.58333302px;line-height:1.25;font-family:sans-serif;letter-spacing:0px;word-spacing:0px;fill:#000000;fill-opacity:1;stroke:none;stroke-width:0.26458332"
       id="text3757">
      <path
         d="m 14.532175,167.383 c 0,2.05052 1.653646,3.70417 4.034896,3.70417 2.38125,0 4.034896,-1.65365 4.034896,-3.70417 0,-2.05052 -1.653646,-3.70416 -4.034896,-3.70416 -2.38125,0 -4.034896,1.65364 -4.034896,3.70416 z m 4.894791,0 c 0,0.59532 -0.396875,0.99219 -0.859895,0.99219 -0.463021,0 -0.859896,-0.39687 -0.859896,-0.99219 0,-0.59531 0.396875,-0.99218 0.859896,-0.99218 0.46302,0 0.859895,0.39687 0.859895,0.99218 z"
         style="font-style:normal;font-variant:normal;font-weight:normal;font-stretch:normal;font-size:13.22916698px;font-family:'Peace Sans';-inkscape-font-specification:'Peace Sans';stroke-width:0.26458332"
         id="path5588"
         inkscape:connector-curvature="0"
         sodipodi:nodetypes="ssssssssss" />
    </g>
    <g
       aria-label="n"
       style="font-style:normal;font-weight:normal;font-size:10.58333302px;line-height:1.25;font-family:sans-serif;letter-spacing:0px;word-spacing:0px;fill:#000000;fill-opacity:1;stroke:none;stroke-width:0.26458332"
       id="text3757-3">
      <path
         d="m 27.690594,163.77805 c -1.190625,0 -1.719792,0.99219 -1.719792,0.99219 l -0.264583,-0.79375 h -3.042708 v 7.01146 h 3.175 v -3.70417 c 0,-0.52917 0.264583,-0.79375 0.529166,-0.79375 0.264584,0 0.529167,0.26458 0.529167,0.79375 v 3.70417 h 3.175 v -3.70417 c 0,-2.4474 -1.058333,-3.50573 -2.38125,-3.50573 z"
         style="font-style:normal;font-variant:normal;font-weight:normal;font-stretch:normal;font-size:13.22916698px;font-family:'Peace Sans';-inkscape-font-specification:'Peace Sans';stroke-width:0.26458332"
         id="path5591"
         inkscape:connector-curvature="0"
         sodipodi:nodetypes="scccccsssccss" />
    </g>
    <g
       aria-label="k"
       style="font-style:normal;font-weight:normal;font-size:10.58333302px;line-height:1.25;font-family:sans-serif;letter-spacing:0px;word-spacing:0px;fill:#000000;fill-opacity:1;stroke:none;stroke-width:0.26458332"
       id="text3757-7">
      <path
         d="m 38.02908,163.97649 h -3.439583 l -1.124479,2.64583 0,-2.64583 h -3.175001 l 0,7.01146 h 3.175001 v -2.77813 l 1.322916,2.77813 h 3.505729 l -2.116666,-3.57188 z"
         style="font-style:normal;font-variant:normal;font-weight:normal;font-stretch:normal;font-size:13.22916698px;font-family:'Peace Sans';-inkscape-font-specification:'Peace Sans';stroke-width:0.26458332"
         id="path5594"
         inkscape:connector-curvature="0"
         sodipodi:nodetypes="cccccccccccc" />
    </g>
    <g
       aria-label="w"
       style="font-style:normal;font-weight:normal;font-size:10.58333302px;line-height:1.25;font-family:sans-serif;letter-spacing:0px;word-spacing:0px;fill:#000000;fill-opacity:1;stroke:none;stroke-width:0.26458332"
       id="text3757-35">
      <path
         d="m 43.784975,163.97649 h -2.513541 l -0.595313,3.43958 -0.396875,-3.43958 h -3.307292 l 1.5875,7.01146 h 3.175 l 0.79375,-3.57188 0.79375,3.57188 h 3.175001 l 1.5875,-7.01146 h -3.307292 l -0.396875,3.43958 z"
         style="font-style:normal;font-variant:normal;font-weight:normal;font-stretch:normal;font-size:13.22916698px;font-family:'Peace Sans';-inkscape-font-specification:'Peace Sans';stroke-width:0.26458332"
         id="path5599"
         inkscape:connector-curvature="0"
         sodipodi:nodetypes="cccccccccccccc" />
    </g>
  </g>
</svg>
