<?xml version="1.0" standalone="no"?>
<!DOCTYPE svg PUBLIC "-//W3C//DTD SVG 20010904//EN"
 "http://www.w3.org/TR/2001/REC-SVG-20010904/DTD/svg10.dtd">
<svg version="1.0" xmlns="http://www.w3.org/2000/svg"
 width="780.000000pt" height="780.000000pt" viewBox="0 0 780.000000 780.000000"
 preserveAspectRatio="xMidYMid meet">
<metadata>
Created by potrace 1.14, written by Peter Selinger 2001-2017
</metadata>
<g transform="translate(0.000000,780.000000) scale(0.100000,-0.100000)"
fill="#000000" stroke="none">
<path d="M0 3900 l0 -3900 3900 0 3900 0 0 3900 0 3900 -3900 0 -3900 0 0
-3900z m4685 3670 c938 -69 1799 -425 2369 -980 l118 -115 -603 -955 c-331
-525 -603 -957 -605 -958 -1 -2 -36 22 -76 54 -258 206 -582 373 -865 444
-483 122 -951 9 -1248 -302 -92 -96 -136 -157 -196 -275 -92 -180 -131 -354
-130 -582 1 -344 106 -621 324 -848 300 -313 765 -426 1251 -303 280 71 605
237 862 441 42 34 77 59 78 57 2 -2 274 -433 605 -958 l603 -955 -118 -115
c-404 -393 -982 -701 -1614 -860 -389 -98 -756 -137 -1190 -127 -421 10 -774
70 -1151 197 -1281 431 -2199 1504 -2424 2834 -217 1279 226 2565 1168 3393
251 221 493 382 802 533 462 227 883 339 1440 383 99 8 473 6 600 -3z"/>
</g>
</svg>
